<?xml version="1.0" encoding="iso-8859-1"?>
<!-- Generator: Adobe Illustrator 19.0.0, SVG Export Plug-In . SVG Version: 6.00 Build 0)  -->
<svg version="1.1" id="Capa_1" xmlns="http://www.w3.org/2000/svg" xmlns:xlink="http://www.w3.org/1999/xlink" x="0px" y="0px"
	 viewBox="0 0 512.019 512.019" style="enable-background:new 0 0 512.019 512.019;" xml:space="preserve">
<path style="fill:#2196F3;" d="M362.676,0H149.343C119.888,0,96.01,23.878,96.01,53.333v448
	c-0.011,5.891,4.757,10.675,10.648,10.686c2.84,0.005,5.565-1.123,7.571-3.134L256.01,367.083l141.781,141.781
	c4.16,4.171,10.914,4.179,15.085,0.019c2.006-2.001,3.133-4.717,3.134-7.55v-448C416.01,23.878,392.131,0,362.676,0z"/>
<path d="M405.343,512c-2.831,0.005-5.548-1.115-7.552-3.115L256.01,367.083L114.228,508.885c-4.16,4.171-10.914,4.179-15.085,0.019
	c-2.011-2.006-3.139-4.731-3.134-7.571v-448C96.01,23.878,119.888,0,149.343,0h213.333c29.455,0,53.333,23.878,53.333,53.333v448
	C416.01,507.224,411.234,512,405.343,512z M256.01,341.333c2.831-0.005,5.548,1.115,7.552,3.115l131.115,131.136V53.333
	c0-17.673-14.327-32-32-32H149.343c-17.673,0-32,14.327-32,32v422.251l131.115-131.115
	C250.458,342.462,253.176,341.334,256.01,341.333z"/>
<g>
</g>
<g>
</g>
<g>
</g>
<g>
</g>
<g>
</g>
<g>
</g>
<g>
</g>
<g>
</g>
<g>
</g>
<g>
</g>
<g>
</g>
<g>
</g>
<g>
</g>
<g>
</g>
<g>
</g>
</svg>
